<svg width="48" height="48" viewBox="0 0 48 48" fill="none" xmlns="http://www.w3.org/2000/svg">
<path d="M23.9993 4.53003C13.2593 4.53003 4.5293 13.26 4.5293 24C4.5293 34.74 13.2593 43.47 23.9993 43.47C34.7393 43.47 43.4693 34.74 43.4693 24C43.4693 13.26 34.7393 4.53003 23.9993 4.53003ZM33.8293 30.63C34.7093 31.51 34.7093 32.94 33.8293 33.83C33.3893 34.27 32.8093 34.49 32.2293 34.49C31.6493 34.49 31.0693 34.27 30.6293 33.83L23.9993 27.2L17.3693 33.83C16.9293 34.27 16.3493 34.49 15.7693 34.49C15.1893 34.49 14.6093 34.27 14.1693 33.83C13.2893 32.94 13.2893 31.51 14.1693 30.63L20.7993 24L14.1693 17.37C13.2893 16.49 13.2893 15.06 14.1693 14.17C15.0593 13.29 16.4893 13.29 17.3693 14.17L23.9993 20.8L30.6293 14.17C31.5093 13.29 32.9393 13.29 33.8293 14.17C34.7093 15.06 34.7093 16.49 33.8293 17.37L27.1993 24L33.8293 30.63Z" fill="#26202D"/>
</svg>
