<svg width="19" height="18" viewBox="0 0 19 18" fill="none" xmlns="http://www.w3.org/2000/svg">
<g clip-path="url(#clip0)">
<path d="M4.8051 10.8776L4.17854 13.2166L1.8885 13.2651C1.20411 11.9957 0.815918 10.5433 0.815918 8.99998C0.815918 7.50756 1.17887 6.10018 1.82223 4.86096H1.82272L3.8615 5.23474L4.75461 7.26129C4.56769 7.80625 4.4658 8.39125 4.4658 8.99998C4.46587 9.66063 4.58555 10.2936 4.8051 10.8776Z" fill="#FBBB00"/>
<path d="M18.6586 7.31873C18.7619 7.86316 18.8158 8.42541 18.8158 9.00004C18.8158 9.64438 18.7481 10.2729 18.619 10.8792C18.1809 12.9422 17.0361 14.7437 15.4502 16.0186L15.4497 16.0181L12.8818 15.887L12.5183 13.6182C13.5706 13.0011 14.393 12.0353 14.8262 10.8792H10.0137V7.31873H14.8964H18.6586Z" fill="#518EF8"/>
<path d="M15.45 16.0181L15.4505 16.0185C13.9081 17.2583 11.9489 18 9.81609 18C6.38867 18 3.40879 16.0843 1.88867 13.2651L4.80527 10.8777C5.56531 12.9061 7.52207 14.3501 9.81609 14.3501C10.8021 14.3501 11.7259 14.0835 12.5186 13.6182L15.45 16.0181Z" fill="#28B446"/>
<path d="M15.5606 2.07197L12.645 4.45894C11.8246 3.94615 10.8549 3.64992 9.81595 3.64992C7.47001 3.64992 5.47665 5.16013 4.75468 7.26131L1.82276 4.86098H1.82227C3.32013 1.97307 6.33759 0 9.81595 0C11.9997 0 14.0019 0.777867 15.5606 2.07197Z" fill="#F14336"/>
</g>
<defs>
<clipPath id="clip0">
<rect width="18" height="18" fill="white" transform="translate(0.815918)"/>
</clipPath>
</defs>
</svg>
