<?xml version="1.0" encoding="UTF-8"?><svg version="1.1" xmlns="http://www.w3.org/2000/svg" xmlns:xlink="http://www.w3.org/1999/xlink" viewBox="0 0 1600 1200" width="1600" height="1200" x="0px" y="0px">
              
              <!-- ITEM 0 -->
<g>
    <defs>
        
        <clipPath id="clip-path-id-viewbox-item-0">
            <rect x="0.0" y="0.0" width="499.706" height="438.209"/>
        </clipPath>
    </defs>
    <g transform="translate(717.0 165.0) rotate(0.0 289.0 253.5) scale(1.1566801279152141 1.1569821706080887)">
        <g clip-path="url(#clip-path-id-viewbox-item-0)" transform="translate(-0.0 -0.0)">
<title>browser</title><g id="Layer_2-i0" data-name="Layer 2"><g id="Layer_1-2-i0" data-name="Layer 1"><path d="M496.023,71.66V414.568a19.928,19.928,0,0,1-19.958,19.959H23.641A19.928,19.928,0,0,1,3.682,414.568V71.66" fill="#fff"/><path d="M476.065,438.209H23.641A23.637,23.637,0,0,1,0,414.568V71.66H7.365V414.568a16.281,16.281,0,0,0,16.276,16.276H476.065a16.281,16.281,0,0,0,16.276-16.276V71.66h7.365V414.568A23.667,23.667,0,0,1,476.065,438.209Z" fill="#f9d5ff"/><path d="M492.783,6.923A23.388,23.388,0,0,0,476.065,0H23.641A23.667,23.667,0,0,0,0,23.641v51.7H499.706v-51.7A23.263,23.263,0,0,0,492.783,6.923Z" fill="#f9d5ff"/><circle cx="40.58" cy="37.634" r="12.962" fill="#f94f74"/><circle cx="84.843" cy="37.634" r="12.962" fill="#f5b870"/><circle cx="129.18" cy="37.634" r="12.962" fill="#6fb895"/><path d="M476.065,438.209H23.641A23.637,23.637,0,0,1,0,414.568V276.7H7.365v137.87a16.281,16.281,0,0,0,16.276,16.276H476.065a16.281,16.281,0,0,0,16.276-16.276V276.7h7.365v137.87A23.667,23.667,0,0,1,476.065,438.209Z" fill="#f9d5ff"/></g></g>
        </g>
    </g>
</g>

<!-- ITEM 1 -->
<g>
    <defs>
        
        <clipPath id="clip-path-id-viewbox-item-1">
            <rect x="0.0" y="0.0" width="537.966" height="499.158"/>
        </clipPath>
    </defs>
    <g transform="translate(835.0 311.0) rotate(0.0 272.5 253.0) scale(1.0130751757546015 1.0137070827273127)">
        <g clip-path="url(#clip-path-id-viewbox-item-1)" transform="translate(-0.0 -0.0)">
<title>browser_dotted</title><g id="Layer_2-i1" data-name="Layer 2"><g id="Layer_1-2-i1" data-name="Layer 1"><path d="M511.339,499.158H26.628A25.127,25.127,0,0,1,1.5,474.031V27.731A22.146,22.146,0,0,1,23.646,5.585H514.32a22.146,22.146,0,0,1,22.146,22.146v446.3A25.127,25.127,0,0,1,511.339,499.158Z" fill="none"/><path d="M535.466,66.48h-8.489a1.846,1.846,0,0,1,0-3.691h8.489a1.846,1.846,0,1,1,0,3.691Z" fill="#b679ea"/><path d="M509.408,66.48h-8.489a1.846,1.846,0,1,1,0-3.691h8.489a1.828,1.828,0,0,1,1.846,1.846A1.875,1.875,0,0,1,509.408,66.48Z" fill="#b679ea"/><path d="M483.276,66.48h-8.489a1.846,1.846,0,0,1,0-3.691h8.489a1.846,1.846,0,1,1,0,3.691Z" fill="#b679ea"/><path d="M457.218,66.48h-8.489a1.846,1.846,0,1,1,0-3.691h8.489a1.828,1.828,0,0,1,1.846,1.846A1.875,1.875,0,0,1,457.218,66.48Z" fill="#b679ea"/><path d="M431.086,66.48H422.6a1.846,1.846,0,0,1,0-3.691h8.489a1.846,1.846,0,1,1,0,3.691Z" fill="#b679ea"/><path d="M405.028,66.48h-8.489a1.846,1.846,0,0,1,0-3.691h8.489a1.828,1.828,0,0,1,1.846,1.846A1.875,1.875,0,0,1,405.028,66.48Z" fill="#b679ea"/><path d="M378.9,66.48h-8.489a1.846,1.846,0,0,1,0-3.691H378.9a1.846,1.846,0,1,1,0,3.691Z" fill="#b679ea"/><path d="M352.838,66.48h-8.489a1.846,1.846,0,0,1,0-3.691h8.489a1.828,1.828,0,0,1,1.846,1.846A1.875,1.875,0,0,1,352.838,66.48Z" fill="#b679ea"/><path d="M326.706,66.48h-8.489a1.846,1.846,0,0,1,0-3.691h8.489a1.846,1.846,0,1,1,0,3.691Z" fill="#b679ea"/><path d="M300.648,66.48h-8.489a1.846,1.846,0,0,1,0-3.691h8.489a1.828,1.828,0,0,1,1.846,1.846A1.875,1.875,0,0,1,300.648,66.48Z" fill="#b679ea"/><path d="M274.516,66.48h-8.489a1.846,1.846,0,0,1,0-3.691h8.489a1.846,1.846,0,1,1,0,3.691Z" fill="#b679ea"/><path d="M248.458,66.48h-8.489a1.846,1.846,0,0,1,0-3.691h8.489a1.828,1.828,0,0,1,1.846,1.846A1.875,1.875,0,0,1,248.458,66.48Z" fill="#b679ea"/><path d="M222.326,66.48h-8.489a1.846,1.846,0,0,1,0-3.691h8.489a1.846,1.846,0,1,1,0,3.691Z" fill="#b679ea"/><path d="M196.268,66.48h-8.489a1.846,1.846,0,0,1,0-3.691h8.489a1.828,1.828,0,0,1,1.846,1.846A1.875,1.875,0,0,1,196.268,66.48Z" fill="#b679ea"/><path d="M170.136,66.48h-8.489a1.846,1.846,0,0,1,0-3.691h8.489a1.846,1.846,0,1,1,0,3.691Z" fill="#b679ea"/><path d="M144.078,66.48h-8.489a1.846,1.846,0,0,1,0-3.691h8.489a1.828,1.828,0,0,1,1.846,1.846A1.875,1.875,0,0,1,144.078,66.48Z" fill="#b679ea"/><path d="M117.946,66.48h-8.489a1.846,1.846,0,0,1,0-3.691h8.489a1.846,1.846,0,1,1,0,3.691Z" fill="#b679ea"/><path d="M91.888,66.48H83.4a1.846,1.846,0,0,1,0-3.691h8.489a1.828,1.828,0,0,1,1.846,1.846A1.875,1.875,0,0,1,91.888,66.48Z" fill="#b679ea"/><path d="M65.757,66.48h-8.49a1.846,1.846,0,0,1,0-3.691h8.49a1.846,1.846,0,0,1,0,3.691Z" fill="#b679ea"/><path d="M39.7,66.48H31.209a1.846,1.846,0,0,1,0-3.691H39.7a1.828,1.828,0,0,1,1.846,1.846A1.875,1.875,0,0,1,39.7,66.48Z" fill="#b679ea"/><path d="M13.567,66.48H5.077a1.846,1.846,0,0,1,0-3.691h8.49a1.846,1.846,0,0,1,0,3.691Z" fill="#b679ea"/><path d="M37.967,50.368h0a17.11,17.11,0,0,1-3.4-.517,1.871,1.871,0,0,1,.96-3.617,9.353,9.353,0,0,0,2.51.369,1.884,1.884,0,0,1-.074,3.765ZM45.054,48.6a1.852,1.852,0,0,1-1.624-.885,1.821,1.821,0,0,1,.664-2.51,10.274,10.274,0,0,0,1.993-1.551,1.828,1.828,0,0,1,2.51,2.658A13.926,13.926,0,0,1,45.94,48.3,1.288,1.288,0,0,1,45.054,48.6ZM28.887,46.087a2.017,2.017,0,0,1-1.4-.591,18.515,18.515,0,0,1-1.993-2.731,1.85,1.85,0,0,1,3.248-1.772,13.252,13.252,0,0,0,1.476,2.067,1.787,1.787,0,0,1-.147,2.584A1.681,1.681,0,0,1,28.887,46.087Zm22.22-5.537a.935.935,0,0,1-.443-.074,1.8,1.8,0,0,1-1.329-2.214,13.59,13.59,0,0,0,.369-2.51,1.846,1.846,0,1,1,3.691,0,12.82,12.82,0,0,1-.443,3.322A2.021,2.021,0,0,1,51.107,40.55ZM25.492,36.638h-.074a1.927,1.927,0,0,1-1.772-1.92,13.112,13.112,0,0,1,.591-3.321A1.845,1.845,0,0,1,27.78,32.43a13.765,13.765,0,0,0-.443,2.51A1.909,1.909,0,0,1,25.492,36.638Zm24.065-6.053a1.735,1.735,0,0,1-1.55-.886,10.274,10.274,0,0,0-1.551-1.993,1.827,1.827,0,0,1,2.584-2.584,14.32,14.32,0,0,1,2.067,2.657,1.8,1.8,0,0,1-.591,2.51A1.479,1.479,0,0,1,49.557,30.585ZM29.921,27.558a1.818,1.818,0,0,1-1.4-.664,1.854,1.854,0,0,1,.148-2.584A14,14,0,0,1,31.4,22.391a1.85,1.85,0,0,1,1.772,3.248,10.221,10.221,0,0,0-2.067,1.4A1.469,1.469,0,0,1,29.921,27.558Zm11.516-2.879a.933.933,0,0,1-.443-.074,9.741,9.741,0,0,0-2.51-.3,1.846,1.846,0,1,1,0-3.691,16.4,16.4,0,0,1,3.322.369,1.906,1.906,0,0,1,1.4,2.215A1.8,1.8,0,0,1,41.437,24.679Z" fill="#b679ea"/><path d="M82.332,50.368h0a17.088,17.088,0,0,1-3.395-.517,1.871,1.871,0,0,1,.959-3.617,9.353,9.353,0,0,0,2.51.369,1.884,1.884,0,0,1-.074,3.765ZM89.419,48.6a1.853,1.853,0,0,1-1.624-.885,1.821,1.821,0,0,1,.664-2.51,10.274,10.274,0,0,0,1.993-1.551,1.828,1.828,0,1,1,2.51,2.658A13.926,13.926,0,0,1,90.305,48.3,1.288,1.288,0,0,1,89.419,48.6ZM73.253,46.087a2.018,2.018,0,0,1-1.4-.591,18.515,18.515,0,0,1-1.993-2.731,1.85,1.85,0,1,1,3.248-1.772,13.252,13.252,0,0,0,1.476,2.067,1.787,1.787,0,0,1-.147,2.584A1.68,1.68,0,0,1,73.253,46.087ZM95.472,40.55a.935.935,0,0,1-.443-.074A1.8,1.8,0,0,1,93.7,38.262a13.59,13.59,0,0,0,.369-2.51,1.846,1.846,0,1,1,3.691,0,12.862,12.862,0,0,1-.442,3.322A2.023,2.023,0,0,1,95.472,40.55ZM69.857,36.638h-.074a1.928,1.928,0,0,1-1.772-1.92A13.112,13.112,0,0,1,68.6,31.4a1.845,1.845,0,1,1,3.543,1.033,13.765,13.765,0,0,0-.443,2.51A1.908,1.908,0,0,1,69.857,36.638Zm24.065-6.053a1.735,1.735,0,0,1-1.55-.886,10.274,10.274,0,0,0-1.551-1.993,1.827,1.827,0,0,1,2.584-2.584,14.32,14.32,0,0,1,2.067,2.657,1.8,1.8,0,0,1-.591,2.51A1.479,1.479,0,0,1,93.922,30.585ZM74.286,27.558a1.819,1.819,0,0,1-1.4-.664,1.854,1.854,0,0,1,.148-2.584,14,14,0,0,1,2.731-1.919,1.85,1.85,0,0,1,1.772,3.248,10.221,10.221,0,0,0-2.067,1.4A1.469,1.469,0,0,1,74.286,27.558ZM85.8,24.679a.935.935,0,0,1-.443-.074,9.741,9.741,0,0,0-2.51-.3,1.846,1.846,0,0,1,0-3.691,16.4,16.4,0,0,1,3.322.369,1.905,1.905,0,0,1,1.4,2.215A1.8,1.8,0,0,1,85.8,24.679Z" fill="#b679ea"/><path d="M126.7,50.368h0a17.088,17.088,0,0,1-3.395-.517,1.871,1.871,0,1,1,.959-3.617,9.353,9.353,0,0,0,2.51.369,1.884,1.884,0,0,1-.074,3.765Zm7.087-1.772a1.853,1.853,0,0,1-1.624-.885,1.822,1.822,0,0,1,.664-2.51,10.281,10.281,0,0,0,1.994-1.551,1.828,1.828,0,0,1,2.509,2.658A13.9,13.9,0,0,1,134.67,48.3,1.288,1.288,0,0,1,133.784,48.6Zm-16.166-2.509a2.018,2.018,0,0,1-1.4-.591,18.588,18.588,0,0,1-1.993-2.731,1.85,1.85,0,1,1,3.248-1.772,13.252,13.252,0,0,0,1.476,2.067,1.787,1.787,0,0,1-.147,2.584A1.677,1.677,0,0,1,117.618,46.087Zm22.219-5.537a.937.937,0,0,1-.443-.074,1.8,1.8,0,0,1-1.328-2.214,13.761,13.761,0,0,0,.369-2.51,1.846,1.846,0,1,1,3.691,0,12.863,12.863,0,0,1-.443,3.322A2.023,2.023,0,0,1,139.837,40.55Zm-25.615-3.912h-.074a1.927,1.927,0,0,1-1.771-1.92,13.066,13.066,0,0,1,.59-3.321,1.845,1.845,0,1,1,3.543,1.033,13.68,13.68,0,0,0-.442,2.51A1.909,1.909,0,0,1,114.222,36.638Zm24.065-6.053a1.735,1.735,0,0,1-1.55-.886,10.308,10.308,0,0,0-1.55-1.993,1.827,1.827,0,1,1,2.583-2.584,14.278,14.278,0,0,1,2.067,2.657,1.8,1.8,0,0,1-.59,2.51A1.484,1.484,0,0,1,138.287,30.585Zm-19.636-3.027a1.816,1.816,0,0,1-1.4-.664,1.853,1.853,0,0,1,.147-2.584,13.98,13.98,0,0,1,2.732-1.919,1.85,1.85,0,0,1,1.771,3.248,10.221,10.221,0,0,0-2.067,1.4A1.469,1.469,0,0,1,118.651,27.558Zm11.516-2.879a.935.935,0,0,1-.443-.074,9.741,9.741,0,0,0-2.51-.3,1.846,1.846,0,0,1,0-3.691,16.387,16.387,0,0,1,3.322.369,1.907,1.907,0,0,1,1.4,2.215A1.8,1.8,0,0,1,130.167,24.679Z" fill="#b679ea"/><path d="M511.438,496.573h-12.1a1.5,1.5,0,0,1,0-3h12a1.543,1.543,0,0,1,1.549,1.5A1.459,1.459,0,0,1,511.438,496.573Zm-24.1,0h-12a1.5,1.5,0,0,1,0-3h12a1.5,1.5,0,0,1,0,3Zm-24.005,0h-12a1.5,1.5,0,1,1,0-3h12a1.5,1.5,0,0,1,0,3Zm-24.006,0h-12a1.5,1.5,0,0,1,0-3h12a1.5,1.5,0,0,1,0,3Zm-24,0h-12a1.5,1.5,0,1,1,0-3h12a1.5,1.5,0,0,1,0,3Zm-24,0h-12a1.5,1.5,0,0,1,0-3h12a1.5,1.5,0,0,1,0,3Zm-24.006,0h-12a1.5,1.5,0,0,1,0-3h12a1.5,1.5,0,0,1,0,3Zm-24,0h-12a1.5,1.5,0,0,1,0-3h12a1.5,1.5,0,1,1,0,3Zm-24.006,0h-12a1.5,1.5,0,0,1,0-3h12a1.5,1.5,0,0,1,0,3Zm-24,0h-12a1.5,1.5,0,1,1,0-3h12a1.5,1.5,0,1,1,0,3Zm-24.006,0h-12a1.5,1.5,0,0,1,0-3h12a1.5,1.5,0,0,1,0,3Zm-24,0h-12a1.5,1.5,0,1,1,0-3h12a1.5,1.5,0,0,1,0,3Zm-24.006,0h-12a1.5,1.5,0,1,1,0-3h12a1.5,1.5,0,1,1,0,3Zm-24,0h-12a1.5,1.5,0,1,1,0-3h12a1.5,1.5,0,1,1,0,3Zm-24,0h-12a1.5,1.5,0,0,1,0-3h12a1.5,1.5,0,1,1,0,3Zm-24.006,0h-12a1.5,1.5,0,0,1,0-3h12a1.5,1.5,0,0,1,0,3Zm-24.005,0h-12a1.5,1.5,0,0,1,0-3h12a1.5,1.5,0,1,1,0,3Zm-24.006,0h-12a1.5,1.5,0,0,1,0-3h12a1.5,1.5,0,0,1,0,3Zm-24,0h-12a1.5,1.5,0,1,1,0-3h12a1.5,1.5,0,0,1,0,3Zm-24.006,0h-12a1.5,1.5,0,1,1,0-3h12a1.5,1.5,0,1,1,0,3Zm-24.006,0h-4.6a26.645,26.645,0,0,1-7.727-1.139,1.5,1.5,0,1,1,.87-2.871,23.654,23.654,0,0,0,6.857,1.01h4.6a1.5,1.5,0,1,1,0,3Zm491.748-2.852a1.5,1.5,0,0,1-.7-2.829,23.822,23.822,0,0,0,8.4-7.375,1.5,1.5,0,0,1,2.455,1.725,26.844,26.844,0,0,1-9.466,8.308A1.483,1.483,0,0,1,522.977,493.721ZM9.1,489.452a1.5,1.5,0,0,1-1.046-.425,26.737,26.737,0,0,1-6.7-10.668,1.5,1.5,0,1,1,2.846-.947,23.732,23.732,0,0,0,5.944,9.464A1.5,1.5,0,0,1,9.1,489.452Zm527.142-14.64a1.368,1.368,0,0,1-.2-.014,1.5,1.5,0,0,1-1.287-1.685,23.873,23.873,0,0,0,.21-3.167v-8.625a1.5,1.5,0,0,1,3,0v8.625a26.987,26.987,0,0,1-.237,3.565A1.5,1.5,0,0,1,536.244,474.812ZM1.5,467.523a1.5,1.5,0,0,1-1.5-1.5v-12a1.5,1.5,0,0,1,3,0v12A1.5,1.5,0,0,1,1.5,467.523Zm534.966-16.705a1.5,1.5,0,0,1-1.5-1.5v-12a1.5,1.5,0,1,1,3,0v12A1.5,1.5,0,0,1,536.466,450.818ZM1.5,443.518a1.5,1.5,0,0,1-1.5-1.5v-12a1.5,1.5,0,0,1,3,0v12A1.5,1.5,0,0,1,1.5,443.518Zm534.966-16.7a1.5,1.5,0,0,1-1.5-1.5v-12a1.5,1.5,0,0,1,3,0v12A1.5,1.5,0,0,1,536.466,426.813ZM1.5,419.512a1.5,1.5,0,0,1-1.5-1.5v-12a1.5,1.5,0,0,1,3,0v12A1.5,1.5,0,0,1,1.5,419.512Zm534.966-16.7a1.5,1.5,0,0,1-1.5-1.5v-12a1.5,1.5,0,0,1,3,0v12A1.5,1.5,0,0,1,536.466,402.807ZM1.5,395.507a1.5,1.5,0,0,1-1.5-1.5V382a1.5,1.5,0,0,1,3,0v12A1.5,1.5,0,0,1,1.5,395.507ZM536.466,378.8a1.5,1.5,0,0,1-1.5-1.5v-12a1.5,1.5,0,0,1,3,0v12A1.5,1.5,0,0,1,536.466,378.8ZM1.5,371.5A1.5,1.5,0,0,1,0,370V358a1.5,1.5,0,0,1,3,0v12A1.5,1.5,0,0,1,1.5,371.5Zm534.966-16.7a1.5,1.5,0,0,1-1.5-1.5v-12a1.5,1.5,0,0,1,3,0v12A1.5,1.5,0,0,1,536.466,354.8ZM1.5,347.5A1.5,1.5,0,0,1,0,346v-12a1.5,1.5,0,0,1,3,0v12A1.5,1.5,0,0,1,1.5,347.5Zm534.966-16.7a1.5,1.5,0,0,1-1.5-1.5v-12a1.5,1.5,0,0,1,3,0v12A1.5,1.5,0,0,1,536.466,330.791ZM1.5,323.49a1.5,1.5,0,0,1-1.5-1.5v-12a1.5,1.5,0,0,1,3,0v12A1.5,1.5,0,0,1,1.5,323.49Zm534.966-16.7a1.5,1.5,0,0,1-1.5-1.5v-12a1.5,1.5,0,0,1,3,0v12A1.5,1.5,0,0,1,536.466,306.785ZM1.5,299.485a1.5,1.5,0,0,1-1.5-1.5v-12a1.5,1.5,0,0,1,3,0v12A1.5,1.5,0,0,1,1.5,299.485ZM536.466,282.78a1.5,1.5,0,0,1-1.5-1.5v-12a1.5,1.5,0,1,1,3,0v12A1.5,1.5,0,0,1,536.466,282.78ZM1.5,275.479a1.5,1.5,0,0,1-1.5-1.5v-12a1.5,1.5,0,0,1,3,0v12A1.5,1.5,0,0,1,1.5,275.479Zm534.966-16.7a1.5,1.5,0,0,1-1.5-1.5v-12a1.5,1.5,0,1,1,3,0v12A1.5,1.5,0,0,1,536.466,258.774ZM1.5,251.474a1.5,1.5,0,0,1-1.5-1.5v-12a1.5,1.5,0,0,1,3,0v12A1.5,1.5,0,0,1,1.5,251.474Zm534.966-16.7a1.5,1.5,0,0,1-1.5-1.5v-12a1.5,1.5,0,1,1,3,0v12A1.5,1.5,0,0,1,536.466,234.769ZM1.5,227.468a1.5,1.5,0,0,1-1.5-1.5v-12a1.5,1.5,0,0,1,3,0v12A1.5,1.5,0,0,1,1.5,227.468Zm534.966-16.7a1.5,1.5,0,0,1-1.5-1.5v-12a1.5,1.5,0,0,1,3,0v12A1.5,1.5,0,0,1,536.466,210.763ZM1.5,203.463a1.5,1.5,0,0,1-1.5-1.5v-12a1.5,1.5,0,0,1,3,0v12A1.5,1.5,0,0,1,1.5,203.463Zm534.966-16.7a1.5,1.5,0,0,1-1.5-1.5v-12a1.5,1.5,0,0,1,3,0v12A1.5,1.5,0,0,1,536.466,186.758ZM1.5,179.458a1.5,1.5,0,0,1-1.5-1.5v-12a1.5,1.5,0,0,1,3,0v12A1.5,1.5,0,0,1,1.5,179.458Zm534.966-16.706a1.5,1.5,0,0,1-1.5-1.5v-12a1.5,1.5,0,0,1,3,0v12A1.5,1.5,0,0,1,536.466,162.752ZM1.5,155.452a1.5,1.5,0,0,1-1.5-1.5v-12a1.5,1.5,0,0,1,3,0v12A1.5,1.5,0,0,1,1.5,155.452Zm534.966-16.7a1.5,1.5,0,0,1-1.5-1.5v-12a1.5,1.5,0,0,1,3,0v12A1.5,1.5,0,0,1,536.466,138.747ZM1.5,131.447a1.5,1.5,0,0,1-1.5-1.5v-12a1.5,1.5,0,0,1,3,0v12A1.5,1.5,0,0,1,1.5,131.447Zm534.966-16.706a1.5,1.5,0,0,1-1.5-1.5v-12a1.5,1.5,0,0,1,3,0v12A1.5,1.5,0,0,1,536.466,114.741ZM1.5,107.441a1.5,1.5,0,0,1-1.5-1.5v-12a1.5,1.5,0,0,1,3,0v12A1.5,1.5,0,0,1,1.5,107.441Zm534.966-16.7a1.5,1.5,0,0,1-1.5-1.5v-12a1.5,1.5,0,0,1,3,0v12A1.5,1.5,0,0,1,536.466,90.736ZM1.5,83.436a1.5,1.5,0,0,1-1.5-1.5v-12a1.5,1.5,0,0,1,3,0v12A1.5,1.5,0,0,1,1.5,83.436ZM536.466,66.73a1.5,1.5,0,0,1-1.5-1.5v-12a1.5,1.5,0,1,1,3,0v12A1.5,1.5,0,0,1,536.466,66.73ZM1.5,59.43A1.5,1.5,0,0,1,0,57.93v-12a1.5,1.5,0,0,1,3,0v12A1.5,1.5,0,0,1,1.5,59.43Zm534.966-16.7a1.5,1.5,0,0,1-1.5-1.5v-12a1.5,1.5,0,1,1,3,0v12A1.5,1.5,0,0,1,536.466,42.725ZM1.5,35.425a1.5,1.5,0,0,1-1.5-1.5V23.646c0-.606.023-1.223.069-1.834a1.486,1.486,0,0,1,1.61-1.383,1.5,1.5,0,0,1,1.383,1.609Q3,22.833,3,23.646V33.925A1.5,1.5,0,0,1,1.5,35.425ZM535.545,18.812a1.5,1.5,0,0,1-1.437-1.073,20.643,20.643,0,0,0-5.884-9.354,1.5,1.5,0,0,1,2.021-2.217,23.632,23.632,0,0,1,6.738,10.715,1.5,1.5,0,0,1-1.008,1.866A1.528,1.528,0,0,1,535.545,18.812ZM5.614,12.285A1.5,1.5,0,0,1,4.395,9.913,23.7,23.7,0,0,1,14.229,1.95a1.5,1.5,0,0,1,1.2,2.752,20.7,20.7,0,0,0-8.589,6.955A1.5,1.5,0,0,1,5.614,12.285Zm513.047-8.86a1.49,1.49,0,0,1-.295-.029A20.765,20.765,0,0,0,514.32,3h-7.634a1.5,1.5,0,0,1,0-3h7.634a23.8,23.8,0,0,1,4.632.454,1.5,1.5,0,0,1-.291,2.971ZM494.683,3h-12a1.5,1.5,0,0,1,0-3h12a1.5,1.5,0,0,1,0,3Zm-24,0h-12a1.5,1.5,0,0,1,0-3h12a1.5,1.5,0,0,1,0,3ZM446.672,3h-12a1.5,1.5,0,0,1,0-3h12a1.5,1.5,0,0,1,0,3ZM422.667,3h-12a1.5,1.5,0,0,1,0-3h12a1.5,1.5,0,0,1,0,3ZM398.661,3h-12a1.5,1.5,0,0,1,0-3h12a1.5,1.5,0,0,1,0,3ZM374.655,3h-12a1.5,1.5,0,0,1,0-3h12a1.5,1.5,0,0,1,0,3Zm-24,0h-12a1.5,1.5,0,0,1,0-3h12a1.5,1.5,0,0,1,0,3Zm-24,0h-12a1.5,1.5,0,0,1,0-3h12a1.5,1.5,0,0,1,0,3Zm-24,0h-12a1.5,1.5,0,0,1,0-3h12a1.5,1.5,0,0,1,0,3ZM278.634,3h-12a1.5,1.5,0,0,1,0-3h12a1.5,1.5,0,0,1,0,3ZM254.628,3h-12a1.5,1.5,0,0,1,0-3h12a1.5,1.5,0,0,1,0,3Zm-24,0h-12a1.5,1.5,0,0,1,0-3h12a1.5,1.5,0,0,1,0,3ZM206.617,3h-12a1.5,1.5,0,0,1,0-3h12a1.5,1.5,0,0,1,0,3Zm-24,0h-12a1.5,1.5,0,0,1,0-3h12a1.5,1.5,0,0,1,0,3ZM158.606,3h-12a1.5,1.5,0,0,1,0-3h12a1.5,1.5,0,0,1,0,3Zm-24,0h-12a1.5,1.5,0,0,1,0-3h12a1.5,1.5,0,0,1,0,3Zm-24,0h-12a1.5,1.5,0,0,1,0-3h12a1.5,1.5,0,0,1,0,3ZM86.59,3h-12a1.5,1.5,0,0,1,0-3h12a1.5,1.5,0,0,1,0,3ZM62.585,3h-12a1.5,1.5,0,0,1,0-3h12a1.5,1.5,0,1,1,0,3ZM38.579,3h-12a1.5,1.5,0,0,1,0-3h12a1.5,1.5,0,0,1,0,3Z" fill="#b679ea"/></g></g>
        </g>
    </g>
</g>

<!-- ITEM 2 -->
<g>
    <defs>
        
        <clipPath id="clip-path-id-viewbox-item-2">
            <rect x="0.0" y="0.0" width="539.0" height="305.121"/>
        </clipPath>
    </defs>
    <g transform="translate(841.0 507.0) rotate(0.0 269.5 152.5) scale(1.0 0.9996034360139093)">
        <g clip-path="url(#clip-path-id-viewbox-item-2)" transform="translate(-0.0 -0.0)">
<title>brick_wall</title><g id="Layer_2-i2" data-name="Layer 2"><g id="Layer_1-2-i2" data-name="Layer 1"><path d="M2.225,202.66H35.591A20.1,20.1,0,0,1,55.67,222.739v10.04a20.1,20.1,0,0,1-20.079,20.078H2.225" fill="#fff"/><path d="M35.591,255.072H2.225v-4.429H35.591a17.927,17.927,0,0,0,17.865-17.864v-10.04a17.927,17.927,0,0,0-17.865-17.864H2.225v-4.429H35.591a22.274,22.274,0,0,1,22.294,22.293v10.04A22.274,22.274,0,0,1,35.591,255.072Z" fill="#f9d5ff"/><path d="M142.407,252.783H75.675A20.1,20.1,0,0,1,55.6,232.705v-10.04a20.1,20.1,0,0,1,20.079-20.078h66.732a20.1,20.1,0,0,1,20.079,20.078v10.04A20.1,20.1,0,0,1,142.407,252.783Z" fill="#fff"/><path d="M142.407,255H75.675a22.273,22.273,0,0,1-22.293-22.293v-10.04a22.273,22.273,0,0,1,22.293-22.293h66.732A22.274,22.274,0,0,1,164.7,222.665v10.04A22.274,22.274,0,0,1,142.407,255ZM75.675,204.8a17.926,17.926,0,0,0-17.864,17.864v10.04a17.926,17.926,0,0,0,17.864,17.864h66.732a17.926,17.926,0,0,0,17.864-17.864v-10.04A17.926,17.926,0,0,0,142.407,204.8Z" fill="#f9d5ff"/><path d="M249.223,252.783H182.491a20.1,20.1,0,0,1-20.079-20.078v-10.04a20.1,20.1,0,0,1,20.079-20.078h66.732A20.1,20.1,0,0,1,269.3,222.665v10.04A20.1,20.1,0,0,1,249.223,252.783Z" fill="#fff"/><path d="M249.223,255H182.491A22.273,22.273,0,0,1,160.2,232.705v-10.04a22.273,22.273,0,0,1,22.293-22.293h66.732a22.274,22.274,0,0,1,22.294,22.293v10.04A22.274,22.274,0,0,1,249.223,255Zm-66.732-50.2a17.926,17.926,0,0,0-17.864,17.864v10.04a17.926,17.926,0,0,0,17.864,17.864h66.732a17.926,17.926,0,0,0,17.864-17.864v-10.04A17.926,17.926,0,0,0,249.223,204.8Z" fill="#f9d5ff"/><path d="M356.113,252.783H289.381A20.1,20.1,0,0,1,269.3,232.705v-10.04a20.1,20.1,0,0,1,20.079-20.078h66.732a20.1,20.1,0,0,1,20.079,20.078v10.04A20.147,20.147,0,0,1,356.113,252.783Z" fill="#fff"/><path d="M356.113,255H289.381a22.274,22.274,0,0,1-22.294-22.293v-10.04a22.274,22.274,0,0,1,22.294-22.293h66.732a22.273,22.273,0,0,1,22.293,22.293v10.04A22.416,22.416,0,0,1,356.113,255Zm-66.732-50.2a17.926,17.926,0,0,0-17.864,17.864v10.04a17.926,17.926,0,0,0,17.864,17.864h66.732a17.974,17.974,0,0,0,17.864-17.864v-10.04A17.926,17.926,0,0,0,356.113,204.8Z" fill="#f9d5ff"/><path d="M462.929,252.783H396.2a20.1,20.1,0,0,1-20.079-20.078v-10.04A20.1,20.1,0,0,1,396.2,202.587h66.732a20.1,20.1,0,0,1,20.079,20.078v10.04A20.1,20.1,0,0,1,462.929,252.783Z" fill="#fff"/><path d="M462.929,255H396.2A22.274,22.274,0,0,1,373.9,232.705v-10.04A22.274,22.274,0,0,1,396.2,200.372h66.732a22.273,22.273,0,0,1,22.293,22.293v10.04A22.273,22.273,0,0,1,462.929,255ZM396.2,204.8a17.927,17.927,0,0,0-17.865,17.864v10.04A17.927,17.927,0,0,0,396.2,250.569h66.732a17.926,17.926,0,0,0,17.864-17.864v-10.04A17.926,17.926,0,0,0,462.929,204.8Z" fill="#f9d5ff"/><path d="M536.379,252.783H503.013a20.1,20.1,0,0,1-20.079-20.078v-10.04a20.1,20.1,0,0,1,20.079-20.078h34.178" fill="#fff"/><path d="M536.379,255H503.013a22.274,22.274,0,0,1-22.294-22.293v-10.04a22.274,22.274,0,0,1,22.294-22.293h34.178V204.8H503.013a17.927,17.927,0,0,0-17.865,17.864v10.04a17.927,17.927,0,0,0,17.865,17.864h33.366Z" fill="#f9d5ff"/><path d="M89.036,302.906H22.3A20.1,20.1,0,0,1,2.225,282.828v-10.04A20.1,20.1,0,0,1,22.3,252.71H89.036a20.1,20.1,0,0,1,20.079,20.078v10.04A20.147,20.147,0,0,1,89.036,302.906Z" fill="#fff"/><path d="M89.036,305.121H22.3A22.273,22.273,0,0,1,.011,282.828v-10.04A22.273,22.273,0,0,1,22.3,250.5H89.036a22.274,22.274,0,0,1,22.294,22.293v10.04A22.417,22.417,0,0,1,89.036,305.121ZM22.3,254.924A17.926,17.926,0,0,0,4.44,272.788v10.04A17.926,17.926,0,0,0,22.3,300.692H89.036A17.973,17.973,0,0,0,106.9,282.828v-10.04a17.926,17.926,0,0,0-17.864-17.864Z" fill="#f9d5ff"/><path d="M195.852,302.906H129.12a20.1,20.1,0,0,1-20.079-20.078v-10.04A20.1,20.1,0,0,1,129.12,252.71h66.732a20.1,20.1,0,0,1,20.079,20.078v10.04A20.147,20.147,0,0,1,195.852,302.906Z" fill="#fff"/><path d="M195.852,305.121H129.12a22.273,22.273,0,0,1-22.293-22.293v-10.04A22.273,22.273,0,0,1,129.12,250.5h66.732a22.273,22.273,0,0,1,22.293,22.293v10.04A22.415,22.415,0,0,1,195.852,305.121Zm-66.732-50.2a17.926,17.926,0,0,0-17.864,17.864v10.04a17.926,17.926,0,0,0,17.864,17.864h66.732a17.973,17.973,0,0,0,17.864-17.864v-10.04a17.926,17.926,0,0,0-17.864-17.864Z" fill="#f9d5ff"/><path d="M302.668,302.906H235.936a20.1,20.1,0,0,1-20.079-20.078v-10.04a20.1,20.1,0,0,1,20.079-20.078h66.732a20.1,20.1,0,0,1,20.079,20.078v10.04A20.1,20.1,0,0,1,302.668,302.906Z" fill="#fff"/><path d="M302.668,305.121H235.936a22.273,22.273,0,0,1-22.293-22.293v-10.04A22.273,22.273,0,0,1,235.936,250.5h66.732a22.273,22.273,0,0,1,22.293,22.293v10.04A22.273,22.273,0,0,1,302.668,305.121Zm-66.732-50.2a17.926,17.926,0,0,0-17.864,17.864v10.04a17.926,17.926,0,0,0,17.864,17.864h66.732a17.926,17.926,0,0,0,17.864-17.864v-10.04a17.926,17.926,0,0,0-17.864-17.864Z" fill="#f9d5ff"/><path d="M409.484,302.906H342.752a20.1,20.1,0,0,1-20.079-20.078v-10.04a20.1,20.1,0,0,1,20.079-20.078h66.732a20.1,20.1,0,0,1,20.079,20.078v10.04A20.1,20.1,0,0,1,409.484,302.906Z" fill="#fff"/><path d="M409.484,305.121H342.752a22.274,22.274,0,0,1-22.294-22.293v-10.04A22.274,22.274,0,0,1,342.752,250.5h66.732a22.273,22.273,0,0,1,22.293,22.293v10.04A22.273,22.273,0,0,1,409.484,305.121Zm-66.732-50.2a17.926,17.926,0,0,0-17.864,17.864v10.04a17.926,17.926,0,0,0,17.864,17.864h66.732a17.926,17.926,0,0,0,17.864-17.864v-10.04a17.926,17.926,0,0,0-17.864-17.864Z" fill="#f9d5ff"/><path d="M516.374,302.906H449.642a20.1,20.1,0,0,1-20.079-20.078v-10.04a20.1,20.1,0,0,1,20.079-20.078h66.732a20.1,20.1,0,0,1,20.079,20.078v10.04A20.147,20.147,0,0,1,516.374,302.906Z" fill="#fff"/><path d="M516.374,305.121H449.642a22.274,22.274,0,0,1-22.294-22.293v-10.04A22.274,22.274,0,0,1,449.642,250.5h66.732a22.273,22.273,0,0,1,22.293,22.293v10.04A22.416,22.416,0,0,1,516.374,305.121Zm-66.732-50.2a17.927,17.927,0,0,0-17.865,17.864v10.04a17.927,17.927,0,0,0,17.865,17.864h66.732a17.974,17.974,0,0,0,17.864-17.864v-10.04a17.926,17.926,0,0,0-17.864-17.864Z" fill="#f9d5ff"/><path d="M2.225,102.488H35.591A20.1,20.1,0,0,1,55.67,122.567v10.039a20.1,20.1,0,0,1-20.079,20.079H2.225" fill="#fff"/><path d="M35.591,154.9H2.225v-4.43H35.591a17.927,17.927,0,0,0,17.865-17.864V122.567A17.927,17.927,0,0,0,35.591,104.7H2.225v-4.429H35.591a22.274,22.274,0,0,1,22.294,22.293v10.039A22.274,22.274,0,0,1,35.591,154.9Z" fill="#f9d5ff"/><path d="M142.407,152.611H75.675A20.1,20.1,0,0,1,55.6,132.532V122.493a20.1,20.1,0,0,1,20.079-20.079h66.732a20.1,20.1,0,0,1,20.079,20.079v10.039A20.1,20.1,0,0,1,142.407,152.611Z" fill="#fff"/><path d="M142.407,154.826H75.675a22.274,22.274,0,0,1-22.293-22.294V122.493A22.273,22.273,0,0,1,75.675,100.2h66.732A22.274,22.274,0,0,1,164.7,122.493v10.039A22.274,22.274,0,0,1,142.407,154.826Zm-66.732-50.2a17.926,17.926,0,0,0-17.864,17.864v10.039A17.927,17.927,0,0,0,75.675,150.4h66.732a17.927,17.927,0,0,0,17.864-17.865V122.493a17.926,17.926,0,0,0-17.864-17.864Z" fill="#f9d5ff"/><path d="M249.223,152.611H182.491a20.1,20.1,0,0,1-20.079-20.079V122.493a20.1,20.1,0,0,1,20.079-20.079h66.732A20.1,20.1,0,0,1,269.3,122.493v10.039A20.1,20.1,0,0,1,249.223,152.611Z" fill="#fff"/><path d="M249.223,154.826H182.491A22.274,22.274,0,0,1,160.2,132.532V122.493A22.273,22.273,0,0,1,182.491,100.2h66.732a22.274,22.274,0,0,1,22.294,22.293v10.039A22.274,22.274,0,0,1,249.223,154.826Zm-66.732-50.2a17.926,17.926,0,0,0-17.864,17.864v10.039A17.927,17.927,0,0,0,182.491,150.4h66.732a17.927,17.927,0,0,0,17.864-17.865V122.493a17.926,17.926,0,0,0-17.864-17.864Z" fill="#f9d5ff"/><path d="M356.113,152.611H289.381A20.1,20.1,0,0,1,269.3,132.532V122.493a20.1,20.1,0,0,1,20.079-20.079h66.732a20.1,20.1,0,0,1,20.079,20.079v10.039A20.148,20.148,0,0,1,356.113,152.611Z" fill="#fff"/><path d="M356.113,154.826H289.381a22.274,22.274,0,0,1-22.294-22.294V122.493A22.274,22.274,0,0,1,289.381,100.2h66.732a22.273,22.273,0,0,1,22.293,22.293v10.039A22.417,22.417,0,0,1,356.113,154.826Zm-66.732-50.2a17.926,17.926,0,0,0-17.864,17.864v10.039A17.927,17.927,0,0,0,289.381,150.4h66.732a17.975,17.975,0,0,0,17.864-17.865V122.493a17.926,17.926,0,0,0-17.864-17.864Z" fill="#f9d5ff"/><path d="M462.929,152.611H396.2a20.1,20.1,0,0,1-20.079-20.079V122.493A20.1,20.1,0,0,1,396.2,102.414h66.732a20.1,20.1,0,0,1,20.079,20.079v10.039A20.1,20.1,0,0,1,462.929,152.611Z" fill="#fff"/><path d="M462.929,154.826H396.2A22.274,22.274,0,0,1,373.9,132.532V122.493A22.274,22.274,0,0,1,396.2,100.2h66.732a22.273,22.273,0,0,1,22.293,22.293v10.039A22.274,22.274,0,0,1,462.929,154.826Zm-66.732-50.2a17.927,17.927,0,0,0-17.865,17.864v10.039A17.928,17.928,0,0,0,396.2,150.4h66.732a17.927,17.927,0,0,0,17.864-17.865V122.493a17.926,17.926,0,0,0-17.864-17.864Z" fill="#f9d5ff"/><path d="M536.379,152.611H503.013a20.1,20.1,0,0,1-20.079-20.079V122.493a20.1,20.1,0,0,1,20.079-20.079h34.178" fill="#fff"/><path d="M536.379,154.826H503.013a22.274,22.274,0,0,1-22.294-22.294V122.493A22.274,22.274,0,0,1,503.013,100.2h34.178v4.429H503.013a17.927,17.927,0,0,0-17.865,17.864v10.039A17.928,17.928,0,0,0,503.013,150.4h33.366Z" fill="#f9d5ff"/><path d="M89.036,202.66H22.3A20.1,20.1,0,0,1,2.225,182.582v-9.966A20.1,20.1,0,0,1,22.3,152.537H89.036a20.1,20.1,0,0,1,20.079,20.079v10.039A20.084,20.084,0,0,1,89.036,202.66Z" fill="#fff"/><path d="M89.036,204.875H22.3A22.273,22.273,0,0,1,.011,182.582v-9.966A22.273,22.273,0,0,1,22.3,150.323H89.036a22.274,22.274,0,0,1,22.294,22.293v10.039A22.4,22.4,0,0,1,89.036,204.875ZM22.3,154.752A17.926,17.926,0,0,0,4.44,172.616v9.966A17.926,17.926,0,0,0,22.3,200.446H89.036a17.91,17.91,0,0,0,17.864-17.79v-10.04a17.926,17.926,0,0,0-17.864-17.864Z" fill="#f9d5ff"/><path d="M195.852,202.66H129.12a20.1,20.1,0,0,1-20.079-20.078v-9.966a20.1,20.1,0,0,1,20.079-20.079h66.732a20.1,20.1,0,0,1,20.079,20.079v10.039A20.084,20.084,0,0,1,195.852,202.66Z" fill="#fff"/><path d="M195.852,204.875H129.12a22.273,22.273,0,0,1-22.293-22.293v-9.966a22.273,22.273,0,0,1,22.293-22.293h66.732a22.273,22.273,0,0,1,22.293,22.293v10.039A22.4,22.4,0,0,1,195.852,204.875ZM129.12,154.752a17.926,17.926,0,0,0-17.864,17.864v9.966a17.926,17.926,0,0,0,17.864,17.864h66.732a17.91,17.91,0,0,0,17.864-17.79v-10.04a17.926,17.926,0,0,0-17.864-17.864Z" fill="#f9d5ff"/><path d="M302.668,202.66H235.936a20.1,20.1,0,0,1-20.079-20.078v-9.966a20.1,20.1,0,0,1,20.079-20.079h66.732a20.1,20.1,0,0,1,20.079,20.079v10.039A20.037,20.037,0,0,1,302.668,202.66Z" fill="#fff"/><path d="M302.668,204.875H235.936a22.273,22.273,0,0,1-22.293-22.293v-9.966a22.273,22.273,0,0,1,22.293-22.293h66.732a22.273,22.273,0,0,1,22.293,22.293v10.039A22.258,22.258,0,0,1,302.668,204.875Zm-66.732-50.123a17.926,17.926,0,0,0-17.864,17.864v9.966a17.926,17.926,0,0,0,17.864,17.864h66.732a17.863,17.863,0,0,0,17.864-17.79v-10.04a17.926,17.926,0,0,0-17.864-17.864Z" fill="#f9d5ff"/><path d="M409.484,202.66H342.752a20.1,20.1,0,0,1-20.079-20.078v-9.966a20.1,20.1,0,0,1,20.079-20.079h66.732a20.1,20.1,0,0,1,20.079,20.079v10.039A20.037,20.037,0,0,1,409.484,202.66Z" fill="#fff"/><path d="M409.484,204.875H342.752a22.274,22.274,0,0,1-22.294-22.293v-9.966a22.274,22.274,0,0,1,22.294-22.293h66.732a22.273,22.273,0,0,1,22.293,22.293v10.039A22.258,22.258,0,0,1,409.484,204.875Zm-66.732-50.123a17.926,17.926,0,0,0-17.864,17.864v9.966a17.926,17.926,0,0,0,17.864,17.864h66.732a17.863,17.863,0,0,0,17.864-17.79v-10.04a17.926,17.926,0,0,0-17.864-17.864Z" fill="#f9d5ff"/><path d="M516.374,202.66H449.642a20.1,20.1,0,0,1-20.079-20.078v-9.966a20.1,20.1,0,0,1,20.079-20.079h66.732a20.1,20.1,0,0,1,20.079,20.079v10.039A20.084,20.084,0,0,1,516.374,202.66Z" fill="#fff"/><path d="M516.374,204.875H449.642a22.274,22.274,0,0,1-22.294-22.293v-9.966a22.274,22.274,0,0,1,22.294-22.293h66.732a22.273,22.273,0,0,1,22.293,22.293v10.039A22.4,22.4,0,0,1,516.374,204.875Zm-66.732-50.123a17.927,17.927,0,0,0-17.865,17.864v9.966a17.927,17.927,0,0,0,17.865,17.864h66.732a17.911,17.911,0,0,0,17.864-17.79v-10.04a17.926,17.926,0,0,0-17.864-17.864Z" fill="#f9d5ff"/><path d="M462.929,52.439H396.2A20.1,20.1,0,0,1,376.118,32.36V22.321A20.1,20.1,0,0,1,396.2,2.242h66.732a20.1,20.1,0,0,1,20.079,20.079V32.36A20.1,20.1,0,0,1,462.929,52.439Z" fill="#fff"/><path d="M462.929,54.654H396.2A22.274,22.274,0,0,1,373.9,32.36V22.321A22.274,22.274,0,0,1,396.2.028h66.732a22.273,22.273,0,0,1,22.293,22.293V32.36A22.274,22.274,0,0,1,462.929,54.654ZM396.2,4.457a17.927,17.927,0,0,0-17.865,17.864V32.36A17.927,17.927,0,0,0,396.2,50.224h66.732A17.926,17.926,0,0,0,480.793,32.36V22.321A17.926,17.926,0,0,0,462.929,4.457Z" fill="#f9d5ff"/><path d="M536.379,52.439H503.013A20.1,20.1,0,0,1,482.934,32.36V22.321A20.1,20.1,0,0,1,503.013,2.242h34.178" fill="#fff"/><path d="M536.379,54.654H503.013A22.274,22.274,0,0,1,480.719,32.36V22.321A22.274,22.274,0,0,1,503.013.028h34.178V4.457H503.013a17.927,17.927,0,0,0-17.865,17.864V32.36a17.927,17.927,0,0,0,17.865,17.864h33.366Z" fill="#f9d5ff"/><path d="M302.668,102.488H235.936a20.1,20.1,0,0,1-20.079-20.079V72.37a20.1,20.1,0,0,1,20.079-20.079h66.732A20.1,20.1,0,0,1,322.747,72.37V82.409A20.053,20.053,0,0,1,302.668,102.488Z" fill="#fff"/><path d="M302.668,104.7H235.936a22.274,22.274,0,0,1-22.293-22.294V72.37a22.273,22.273,0,0,1,22.293-22.293h66.732A22.273,22.273,0,0,1,324.961,72.37V82.409A22.274,22.274,0,0,1,302.668,104.7Zm-66.732-50.2A17.926,17.926,0,0,0,218.072,72.37V82.409a17.927,17.927,0,0,0,17.864,17.865h66.732a17.927,17.927,0,0,0,17.864-17.865V72.37a17.926,17.926,0,0,0-17.864-17.864Z" fill="#f9d5ff"/><path d="M409.484,102.488H342.752a20.1,20.1,0,0,1-20.079-20.079V72.37a20.1,20.1,0,0,1,20.079-20.079h66.732A20.1,20.1,0,0,1,429.563,72.37V82.409A20.053,20.053,0,0,1,409.484,102.488Z" fill="#fff"/><path d="M409.484,104.7H342.752a22.274,22.274,0,0,1-22.294-22.294V72.37a22.274,22.274,0,0,1,22.294-22.293h66.732A22.273,22.273,0,0,1,431.777,72.37V82.409A22.274,22.274,0,0,1,409.484,104.7Zm-66.732-50.2A17.926,17.926,0,0,0,324.888,72.37V82.409a17.927,17.927,0,0,0,17.864,17.865h66.732a17.927,17.927,0,0,0,17.864-17.865V72.37a17.926,17.926,0,0,0-17.864-17.864Z" fill="#f9d5ff"/><path d="M516.374,102.488H449.642a20.1,20.1,0,0,1-20.079-20.079V72.37a20.1,20.1,0,0,1,20.079-20.079h66.732A20.1,20.1,0,0,1,536.453,72.37V82.409A20.1,20.1,0,0,1,516.374,102.488Z" fill="#fff"/><path d="M516.374,104.7H449.642a22.274,22.274,0,0,1-22.294-22.294V72.37a22.274,22.274,0,0,1,22.294-22.293h66.732A22.273,22.273,0,0,1,538.667,72.37V82.409A22.417,22.417,0,0,1,516.374,104.7Zm-66.732-50.2A17.927,17.927,0,0,0,431.777,72.37V82.409a17.928,17.928,0,0,0,17.865,17.865h66.732a17.975,17.975,0,0,0,17.864-17.865V72.37a17.926,17.926,0,0,0-17.864-17.864Z" fill="#f9d5ff"/><path d="M518.543,305H21.511A21.534,21.534,0,0,1,0,283.489V100.274H4V283.489A17.53,17.53,0,0,0,21.511,301H518.543A16.476,16.476,0,0,0,535,284.543V0h4V284.543A20.48,20.48,0,0,1,518.543,305Z" fill="#f9d5ff"/></g></g>
        </g>
    </g>
</g>

<!-- ITEM 3 -->
<g>
    <defs>
        
        <clipPath id="clip-path-id-viewbox-item-3">
            <rect x="0.0" y="0.0" width="386.138" height="553.602"/>
        </clipPath>
    </defs>
    <g transform="translate(779.0 320.0) rotate(0.0 -269.5 386.5) scale(-1.3958740139535608 1.396309984429247)">
        <g clip-path="url(#clip-path-id-viewbox-item-3)" transform="translate(-0.0 -0.0)">

<linearGradient id="SVGID_15_-i3" gradientUnits="userSpaceOnUse" x1="201.1679" y1="533.9623" x2="199.168" y2="261.9694">
	<stop offset="0" style="stop-color:#77879D"/>
	<stop offset="0.0893" style="stop-color:#A1978E"/>
	<stop offset="0.1883" style="stop-color:#C9A780"/>
	<stop offset="0.2791" style="stop-color:#E5B275"/>
	<stop offset="0.3578" style="stop-color:#F7B96F"/>
	<stop offset="0.4155" style="stop-color:#FDBB6D"/>
	<stop offset="0.4989" style="stop-color:#FDBB9F"/>
	<stop offset="0.599" style="stop-color:#D1D2D1"/>
	<stop offset="1" style="stop-color:#FECEAA"/>
</linearGradient>
<path fill="url(#SVGID_15_-i3)" d="M154.068,260.381c0,0,2.178,33.778,2.677,39.389c0.942,11.222,2.171,22.5,3.668,33.722  c2.959,22.556,6.751,45.111,11.219,67.722c2.184,11.333,4.58,22.611,7.041,33.944c1.231,5.667,2.573,11.333,3.803,17l2.013,8.5  c0.671,2.833,1.342,5.667,2.068,8.5l2.124,8.5l2.179,8.5c0.726,2.833,1.508,5.667,2.235,8.5l1.15,4.278l1.206,4.278l2.412,8.556  l1.206,4.278l1.317,4.278c0.893,2.833,1.675,5.667,2.634,8.556c0.949,2.833,2.676,8.167,3.624,11l39.637-2.667l-13.966-132.167  l-15.536-135.056L154.068,260.381z"/>
<g>
	<path fill="#2B2B2B" d="M176.747,551.659l64.222-0.278c3.333,0,6.111-2.722,6.167-6.056l0.167-8.111l-40.556,0.556l-30.722,7.722   C172.359,546.437,173.025,551.715,176.747,551.659z"/>
</g>
<linearGradient id="SVGID_16_-i3" gradientUnits="userSpaceOnUse" x1="290.8254" y1="533.3029" x2="288.8254" y2="261.3029">
	<stop offset="0" style="stop-color:#77879D"/>
	<stop offset="0.0893" style="stop-color:#A1978E"/>
	<stop offset="0.1883" style="stop-color:#C9A780"/>
	<stop offset="0.2791" style="stop-color:#E5B275"/>
	<stop offset="0.3578" style="stop-color:#F7B96F"/>
	<stop offset="0.4155" style="stop-color:#FDBB6D"/>
	<stop offset="0.4989" style="stop-color:#FDBB9F"/>
	<stop offset="0.599" style="stop-color:#D1D2D1"/>
	<stop offset="1" style="stop-color:#FECEAA"/>
</linearGradient>
<path fill="url(#SVGID_16_-i3)" d="M199.213,302.721l0.641,1.96l0.695,1.947l1.324,3.853l2.851,7.6  c0.959,2.569,1.959,5.072,2.959,7.574l3.067,7.549c4.121,10.038,8.54,19.89,13.066,29.717c4.527,9.826,9.311,19.534,14.149,29.229  c4.946,9.669,9.933,19.271,15.137,28.821l2.369,4.402l0.333,0.434c7.259,8.829,14.679,17.619,22.182,26.275l5.623,6.536l5.718,6.456  c3.772,4.294,7.706,8.55,11.532,12.832c7.801,8.47,15.71,16.914,23.85,25.132c8.194,8.204,16.389,16.409,25.125,24.255  l30.669-26.492l-74.912-109.668l2.769,4.878l-53.524-118.395L199.213,302.721z"/>
<g>
	<g>
		<path fill="#2B2B2B" d="M331.086,552.983l52.437-36.967c2.74-1.914,3.437-5.68,1.564-8.488l-4.53-6.741l-32.933,23.721    l-20.767,23.946C324.487,551.194,328.06,555.136,331.086,552.983z"/>
	</g>
</g>
<g>
	<path fill="#2B2B2B" d="M311.232,409.89c0.378-0.091,0.625-0.493,0.534-0.871l-3.782-15.775c-0.091-0.378-0.493-0.625-0.871-0.534   c-0.378,0.091-0.625,0.493-0.534,0.871l3.782,15.775C310.452,409.734,310.853,409.981,311.232,409.89z"/>
</g>
<g>
	<path fill="#2B2B2B" d="M243.85,401.582c-0.274,0-0.538-0.15-0.67-0.411l-36-71c-0.188-0.37-0.04-0.821,0.33-1.008   c0.371-0.188,0.821-0.039,1.008,0.33l36,71c0.188,0.37,0.04,0.821-0.33,1.008C244.079,401.556,243.963,401.582,243.85,401.582z"/>
</g>
<path fill="#EA7068" d="M286.028,194.577l-38.7,0.093c-29.115,0.07-46.675-32.681-30.035-56.652c0.24-0.362,0.541-0.785,0.781-1.147  c7.03-9.662,11.897-16.063,16.944-23.068c7.092-33.774,27.221-35.993,27.221-35.993s15.19-0.458,26.874,20.551  c5.207,9.452,10.233,18.964,17.245,27.205c1.692,1.925,3.446,4.031,5.38,6.317c3.446,4.091,5.927,8.244,7.746,12.52  C329.547,168.19,311.888,194.515,286.028,194.577z"/>
<linearGradient id="SVGID_17_-i3" gradientUnits="userSpaceOnUse" x1="274.4275" y1="149.466" x2="269.7608" y2="290.7994" gradientTransform="matrix(0.9983 -0.0582 0.0582 0.9983 -56.8281 -18.7903)">
	<stop offset="0" style="stop-color:#6B9C83"/>
	<stop offset="0.401" style="stop-color:#A6A6A4"/>
	<stop offset="0.5011" style="stop-color:#9F9FC8"/>
	<stop offset="0.5908" style="stop-color:#9FCCEC"/>
	<stop offset="1" style="stop-color:#FFE7B0"/>
</linearGradient>
<path fill="url(#SVGID_17_-i3)" d="M175.439,223.38c0,0,18.794-29.484,20.544-34.547c1.75-5.064-7.884-17-2.235-32.252  c4.319-11.697,23.03-24.72,43.479-17.342l16.327,6.436c30.194,10.404,29.736,21.264,23.259,40.004l0.057,0.018  c-0.11,0.344-0.278,0.669-0.388,1.013c-0.037,0.115-0.073,0.229-0.11,0.344l0,0c-8.29,20.535-24.438,15.704-24.094,32.372  L175.439,223.38z"/>
<linearGradient id="SVGID_18_-i3" gradientUnits="userSpaceOnUse" x1="196.4988" y1="1374.5847" x2="196.4988" y2="203.8643" gradientTransform="matrix(1.0446 -0.1005 0.0198 0.9554 -3.6675 8.2519)">
	<stop offset="0" style="stop-color:#77879D"/>
	<stop offset="0.0893" style="stop-color:#A1978E"/>
	<stop offset="0.1883" style="stop-color:#C9A780"/>
	<stop offset="0.2791" style="stop-color:#E5B275"/>
	<stop offset="0.3578" style="stop-color:#F7B96F"/>
	<stop offset="0.4155" style="stop-color:#FDBB6D"/>
	<stop offset="0.4989" style="stop-color:#FDBB9F"/>
	<stop offset="0.599" style="stop-color:#D1D2D1"/>
	<stop offset="1" style="stop-color:#FECEAA"/>
</linearGradient>
<path fill="url(#SVGID_18_-i3)" d="M260.126,250.399c0.486,23.379-22.974,44.625-52.398,47.455s-53.556-14.305-53.556-37.689  c0-6.956,1.767-17.694,34.762-73.125C204.053,161.64,259.641,227.02,260.126,250.399z"/>
<polygon fill="#2B2B2B" points="176.932,206.595 166.94,226.302 179.43,241.568 272.414,317.342 254.094,284.327 "/>
<polygon fill="#2B2B2B" points="257.21,146.698 266.078,151.353 252.165,155.208 "/>
<linearGradient id="SVGID_19_-i3" gradientUnits="userSpaceOnUse" x1="149.8504" y1="111.5208" x2="145.1837" y2="252.8541">
	<stop offset="0" style="stop-color:#6B9C83"/>
	<stop offset="0.401" style="stop-color:#A6A6A4"/>
	<stop offset="0.5011" style="stop-color:#9F9FC8"/>
	<stop offset="0.5908" style="stop-color:#9FCCEC"/>
	<stop offset="1" style="stop-color:#FFE7B0"/>
</linearGradient>
<path fill="url(#SVGID_19_-i3)" d="M225.794,181.541l8.268-42.376l-36.77-7.287l-46.804-11.919l5.582,2.326L87.243,88.557  c-7.654-3.748-16.897-0.588-20.644,7.066c-3.367,6.927-1.108,15.125,4.997,19.445l62.721,44.076c1.344,0.929,2.796,1.58,4.301,2.007  l1.337,0.318l48.977,12.506L225.794,181.541z"/>
<circle fill="#EA7068" cx="284.455" cy="70.483" r="14.778"/>
<circle fill="#2B2B2B" cx="272.423" cy="83.571" r="14.778"/>
<g>
	<path fill="#2B2B2B" d="M199.231,159.629c-0.091,0.063-0.137,0.095-0.197,0.204l-3.371,5.179c-0.225,0.359-0.14,0.773,0.219,0.998   c0.359,0.225,0.773,0.14,0.998-0.219l3.371-5.179c0.225-0.359,0.14-0.773-0.219-0.998   C199.782,159.449,199.459,159.47,199.231,159.629z"/>
</g>
<g>
	<g>
		<path id="SVGID_11_-i3" fill="#FDC068" d="M238.278,124.573l13.614,7.133c7.047,3.698,15.754,0.995,19.452-6.052l10.745-20.47    c5.87-11.264,1.547-25.158-9.672-31.076l0,0c-11.264-5.87-25.158-1.547-31.076,9.672l-9.829,18.79    C227.241,110.532,230.271,120.352,238.278,124.573z"/>
	</g>
	<g>
		<path fill="#2B2B2B" d="M239.624,91.121c-0.674,0.731-1.647,1.006-2.502,0.759l2.303-4.457l0.049,0.045    C240.547,88.456,240.612,90.049,239.624,91.121z"/>
	</g>
</g>
<path fill="#FDC068" d="M261.252,147.252l14.824-30.845l-21.669-11.399l-19.612,32.918c-3.033,5.09-1.116,11.684,4.173,14.355  l3.011,1.521C249.104,157.399,257.794,154.446,261.252,147.252z"/>
<g>
	<path fill="#2B2B2B" d="M239.535,99.239c-0.049-0.045-0.098-0.09-0.146-0.135l-1.355-2.149c-0.616-1.288,0.027-2.769,1.315-3.384   l4.658-1.927c0.416-0.158,0.798,0.014,0.956,0.43c0.158,0.416-0.014,0.798-0.43,0.956l-4.658,1.927   c-0.505,0.255-0.763,0.829-0.553,1.383l1.257,2.059c0.203,0.367,0.08,0.794-0.239,1.042   C240.109,99.497,239.779,99.464,239.535,99.239z"/>
</g>
<g>
	<path fill="#2B2B2B" d="M237.012,107.457c-1.365-1.257-1.491-3.175-1.494-3.269c-0.015-0.375,0.299-0.716,0.718-0.78   c0.375-0.015,0.716,0.299,0.78,0.718c0,0,0.065,1.592,1.224,2.389c0.821,0.576,2.046,0.713,3.533,0.371   c0.371-0.109,0.802,0.108,0.915,0.572c0.109,0.371-0.108,0.802-0.572,0.915c-1.996,0.504-3.6,0.289-4.762-0.602   C237.207,107.637,237.109,107.547,237.012,107.457z"/>
</g>
<polygon fill="#2B2B2B" points="241.775,126.352 250.643,131.007 236.73,134.862 "/>
<circle fill="#2B2B2B" cx="250.865" cy="96.429" r="2.585"/>
<path fill="#EA7068" d="M240.849,85.275l42.127,19.155l0,0c5.289-11.632,0.159-25.316-11.472-30.604l0,0  C259.822,68.514,246.138,73.643,240.849,85.275L240.849,85.275z"/>
<path fill="#EA7068" d="M264.625,89.586l-11.021,23.403l5.274,2.494l3.371-7.158c0.593-1.205,2.376-0.944,2.591,0.365l3.641,24.552  l14.013-27.573c0,0,2.046-5.596,1.554-9.548C283.568,92.719,264.625,89.586,264.625,89.586z"/>
<circle fill="#FDC068" cx="269.169" cy="113.587" r="9.216"/>
<path fill="#FDC068" d="M87.243,88.557c-7.654-3.748-16.897-0.588-20.644,7.066c-3.367,6.927-1.108,15.125,4.997,19.445  l14.466,10.166l16.954-28.947L87.243,88.557z"/>
<g>
	<g>
		<path fill="#5D5D5D" d="M313.488,357.476L184.978,230.98L62.692,88.693c-6.045-7.034-5.56-17.561,1.106-24.01l0,0    c6.667-6.449,17.204-6.583,24.034-0.307l138.14,126.951l122.152,132.647c8.861,9.622,8.429,24.555-0.973,33.65l0,0    C337.75,366.717,322.81,366.652,313.488,357.476z"/>
		<path fill="#F9D5FF" d="M2.159,0.958c-9.087-8.769,11.334,44.606,45.829,80.268c8.78,9.077,23.256,9.318,32.332,0.538    s9.318-23.256,0.538-32.332S41.947,39.352,2.159,0.958z"/>
	</g>
	<g>
		<path fill="#2B2B2B" d="M39.848,72.014c-0.195,0-0.391-0.076-0.537-0.227c-7.75-7.952-15.829-19.616-23.365-33.731    c-0.195-0.365-0.058-0.819,0.308-1.015c0.367-0.194,0.821-0.057,1.015,0.309c7.472,13.991,15.465,25.538,23.117,33.39    c0.289,0.297,0.283,0.771-0.014,1.061C40.226,71.943,40.036,72.014,39.848,72.014z"/>
	</g>
</g>
<path fill="#2B2B2B" d="M266.203,283.948l-17.489,5.038c-8.092,2.294-16.546-2.34-18.84-10.432  c-2.076-7.115,1.332-14.553,7.71-17.807l17.135-8.748l40.454,15.105L266.203,283.948z"/>
<path fill="#2B2B2B" d="M85.828,117.642c3.475,0.088,14.793-5.778,10.258-15.278c-5.854-12.353-27.034-14.532-25.781-3.787  C71.536,109.22,85.828,117.642,85.828,117.642z"/>
<path fill="#FDC068" d="M84.05,123.065c3.785,0.226,13.203-6.147,7.9-16.237c-6.848-13.117-29.471-17.094-27.692-5.834  C66.008,112.15,84.05,123.065,84.05,123.065z"/>
<linearGradient id="SVGID_20_-i3" gradientUnits="userSpaceOnUse" x1="288.6897" y1="116.1051" x2="284.0231" y2="257.4385">
	<stop offset="0" style="stop-color:#6B9C83"/>
	<stop offset="0.401" style="stop-color:#A6A6A4"/>
	<stop offset="0.5011" style="stop-color:#9F9FC8"/>
	<stop offset="0.5908" style="stop-color:#9FCCEC"/>
	<stop offset="1" style="stop-color:#FFE7B0"/>
</linearGradient>
<path fill="url(#SVGID_20_-i3)" d="M256.992,244.525l20.03-10.846l-21.587-34.778c-7.922-8.479-10.471-27.246-1.993-35.168  c8.479-7.922,13.33-21.399,32.744,6.428l32.415,50.692c10.062,15.737,2.834,36.767-14.764,43.014l-35.392,12.536L256.992,244.525z"/>
<g>
	<path fill="#2B2B2B" d="M275.629,233.951c0.262,0.206,0.618,0.204,0.877,0.054l10.677-7.713c0.328-0.237,0.394-0.68,0.158-1.008   c-0.237-0.328-0.68-0.394-1.008-0.158l-10.677,7.713c-0.328,0.237-0.394,0.68-0.158,1.008   C275.542,233.882,275.586,233.916,275.629,233.951z"/>
</g>
<path fill="#FDC068" d="M268.424,276.454l-17.489,5.038c-8.092,2.294-16.546-2.34-18.84-10.432  c-2.076-7.115,1.332-14.553,7.71-17.807l17.135-8.748L268.424,276.454z"/>

        </g>
    </g>
</g>

<!-- ITEM 4 -->
<g>
    <defs>
        
        <clipPath id="clip-path-id-viewbox-item-4">
            <rect x="302.723" y="984.667" width="99.741" height="73.543"/>
        </clipPath>
    </defs>
    <g transform="translate(896.0 428.0) rotate(0.0 60.0 44.5) scale(1.2031160706229134 1.210176359408781)">
        <g clip-path="url(#clip-path-id-viewbox-item-4)" transform="translate(-302.723 -984.667)">

<path fill="#FFE651" d="M400.737,985.812c-0.731-0.737-1.727-1.15-2.764-1.145H323.16c-2.158,0.002-3.907,1.751-3.909,3.909v7.94  v0.609v33.297v22.798c0,0,0,0.001,0,0.001c0,2.159,1.751,3.909,3.909,3.908h74.813c0.135,0,0.268-0.007,0.4-0.021  c0.177-0.018,0.349-0.052,0.518-0.093c0.173-0.042,0.342-0.095,0.505-0.159c0.085-0.033,0.168-0.07,0.25-0.109  c0.177-0.084,0.35-0.178,0.511-0.287c0.372-0.251,0.695-0.568,0.96-0.928c0.106-0.144,0.206-0.292,0.291-0.45  c0.013-0.024,0.023-0.05,0.036-0.075c0.045-0.087,0.09-0.175,0.128-0.266c0.016-0.037,0.027-0.076,0.042-0.114  c0.077-0.2,0.142-0.406,0.186-0.62c0.014-0.068,0.022-0.139,0.032-0.208c0.009-0.06,0.021-0.119,0.028-0.18  c0.007-0.064,0.007-0.129,0.01-0.193c0.004-0.069,0.011-0.136,0.011-0.206v0v-22.798v-33.297v-0.609v-7.94  C401.889,987.538,401.477,986.541,400.737,985.812z"/>
<path fill="#F9D5FF" d="M383.65,997.412c-0.911-0.617-2.008-0.963-3.044-0.959h-74.813c-2.158,0.002-3.479,1.466-2.954,3.273  l1.941,6.649l0.149,0.51l8.138,27.881l5.572,19.09l0,0.001c0.528,1.808,2.706,3.273,4.864,3.272h74.813  c0.135,0,0.266-0.006,0.394-0.017c0.173-0.015,0.336-0.044,0.495-0.078c0.163-0.035,0.319-0.079,0.467-0.133  c0.077-0.028,0.151-0.059,0.224-0.092c0.157-0.071,0.306-0.149,0.441-0.24c0.31-0.21,0.556-0.475,0.733-0.777  c0.071-0.12,0.134-0.245,0.181-0.376c0.007-0.02,0.011-0.042,0.018-0.063c0.024-0.073,0.047-0.147,0.063-0.223  c0.007-0.031,0.009-0.064,0.014-0.095c0.029-0.167,0.043-0.34,0.035-0.519c-0.003-0.057-0.012-0.116-0.019-0.174  c-0.006-0.05-0.008-0.1-0.016-0.151c-0.009-0.053-0.025-0.108-0.037-0.162c-0.013-0.057-0.023-0.114-0.04-0.172l0,0l-5.572-19.09  l-8.138-27.881l-0.149-0.51l-1.941-6.649C385.224,998.857,384.567,998.022,383.65,997.412z"/>
<g>
	<path fill="#2B2B2B" d="M398.316,1058.209h-74.814c-0.596,0-1.08-0.484-1.08-1.08c0-0.596,0.484-1.08,1.08-1.08h74.814   c0.101,0,0.2-0.004,0.297-0.013c0.129-0.011,0.248-0.033,0.365-0.058c0.114-0.024,0.222-0.055,0.324-0.092   c0.05-0.018,0.096-0.037,0.142-0.059c0.125-0.056,0.217-0.105,0.288-0.153c0.17-0.115,0.308-0.26,0.408-0.43   c0.037-0.064,0.065-0.119,0.085-0.167c0.006-0.023,0.013-0.045,0.02-0.067c0.009-0.029,0.023-0.067,0.032-0.107   c0.024-0.158,0.031-0.25,0.026-0.337l-0.063-0.374l-15.806-54.163c-0.178-0.629-0.681-1.252-1.382-1.719   c-0.733-0.496-1.615-0.778-2.43-0.778c-0.004,0-0.008,0-0.013,0h-26.804c-0.596,0-1.08-0.484-1.08-1.08   c0-0.596,0.483-1.08,1.08-1.08h26.8c0.007,0,0.014,0,0.021,0c1.25,0,2.539,0.406,3.629,1.144c1.132,0.753,1.935,1.791,2.254,2.915   l15.798,54.122c0.02,0.069,0.034,0.133,0.047,0.197l0.016,0.068c0.016,0.065,0.031,0.13,0.042,0.193   c0.01,0.063,0.016,0.121,0.022,0.179l0.008,0.072c0.009,0.069,0.016,0.137,0.02,0.204c0.012,0.245-0.005,0.491-0.05,0.752   c-0.003,0.036-0.012,0.09-0.023,0.143c-0.023,0.106-0.055,0.215-0.091,0.323c0,0.007-0.013,0.052-0.028,0.095   c-0.066,0.182-0.153,0.365-0.267,0.559c-0.264,0.448-0.62,0.826-1.058,1.124c-0.177,0.119-0.374,0.227-0.605,0.331   c-0.091,0.042-0.192,0.083-0.298,0.122c-0.192,0.07-0.398,0.129-0.61,0.174c-0.227,0.048-0.426,0.08-0.625,0.098   C398.648,1058.202,398.484,1058.209,398.316,1058.209z"/>
</g>

        </g>
    </g>
</g>

<!-- ITEM 5 -->
<g>
    <defs>
        
        <clipPath id="clip-path-id-viewbox-item-5">
            <rect x="302.723" y="984.667" width="99.741" height="73.543"/>
        </clipPath>
    </defs>
    <g transform="translate(1047.0 427.0) rotate(0.0 61.0 45.0) scale(1.2231680051332952 1.2237738465931496)">
        <g clip-path="url(#clip-path-id-viewbox-item-5)" transform="translate(-302.723 -984.667)">

<path fill="#FFE651" d="M400.737,985.812c-0.731-0.737-1.727-1.15-2.764-1.145H323.16c-2.158,0.002-3.907,1.751-3.909,3.909v7.94  v0.609v33.297v22.798c0,0,0,0.001,0,0.001c0,2.159,1.751,3.909,3.909,3.908h74.813c0.135,0,0.268-0.007,0.4-0.021  c0.177-0.018,0.349-0.052,0.518-0.093c0.173-0.042,0.342-0.095,0.505-0.159c0.085-0.033,0.168-0.07,0.25-0.109  c0.177-0.084,0.35-0.178,0.511-0.287c0.372-0.251,0.695-0.568,0.96-0.928c0.106-0.144,0.206-0.292,0.291-0.45  c0.013-0.024,0.023-0.05,0.036-0.075c0.045-0.087,0.09-0.175,0.128-0.266c0.016-0.037,0.027-0.076,0.042-0.114  c0.077-0.2,0.142-0.406,0.186-0.62c0.014-0.068,0.022-0.139,0.032-0.208c0.009-0.06,0.021-0.119,0.028-0.18  c0.007-0.064,0.007-0.129,0.01-0.193c0.004-0.069,0.011-0.136,0.011-0.206v0v-22.798v-33.297v-0.609v-7.94  C401.889,987.538,401.477,986.541,400.737,985.812z"/>
<path fill="#F9D5FF" d="M383.65,997.412c-0.911-0.617-2.008-0.963-3.044-0.959h-74.813c-2.158,0.002-3.479,1.466-2.954,3.273  l1.941,6.649l0.149,0.51l8.138,27.881l5.572,19.09l0,0.001c0.528,1.808,2.706,3.273,4.864,3.272h74.813  c0.135,0,0.266-0.006,0.394-0.017c0.173-0.015,0.336-0.044,0.495-0.078c0.163-0.035,0.319-0.079,0.467-0.133  c0.077-0.028,0.151-0.059,0.224-0.092c0.157-0.071,0.306-0.149,0.441-0.24c0.31-0.21,0.556-0.475,0.733-0.777  c0.071-0.12,0.134-0.245,0.181-0.376c0.007-0.02,0.011-0.042,0.018-0.063c0.024-0.073,0.047-0.147,0.063-0.223  c0.007-0.031,0.009-0.064,0.014-0.095c0.029-0.167,0.043-0.34,0.035-0.519c-0.003-0.057-0.012-0.116-0.019-0.174  c-0.006-0.05-0.008-0.1-0.016-0.151c-0.009-0.053-0.025-0.108-0.037-0.162c-0.013-0.057-0.023-0.114-0.04-0.172l0,0l-5.572-19.09  l-8.138-27.881l-0.149-0.51l-1.941-6.649C385.224,998.857,384.567,998.022,383.65,997.412z"/>
<g>
	<path fill="#2B2B2B" d="M398.316,1058.209h-74.814c-0.596,0-1.08-0.484-1.08-1.08c0-0.596,0.484-1.08,1.08-1.08h74.814   c0.101,0,0.2-0.004,0.297-0.013c0.129-0.011,0.248-0.033,0.365-0.058c0.114-0.024,0.222-0.055,0.324-0.092   c0.05-0.018,0.096-0.037,0.142-0.059c0.125-0.056,0.217-0.105,0.288-0.153c0.17-0.115,0.308-0.26,0.408-0.43   c0.037-0.064,0.065-0.119,0.085-0.167c0.006-0.023,0.013-0.045,0.02-0.067c0.009-0.029,0.023-0.067,0.032-0.107   c0.024-0.158,0.031-0.25,0.026-0.337l-0.063-0.374l-15.806-54.163c-0.178-0.629-0.681-1.252-1.382-1.719   c-0.733-0.496-1.615-0.778-2.43-0.778c-0.004,0-0.008,0-0.013,0h-26.804c-0.596,0-1.08-0.484-1.08-1.08   c0-0.596,0.483-1.08,1.08-1.08h26.8c0.007,0,0.014,0,0.021,0c1.25,0,2.539,0.406,3.629,1.144c1.132,0.753,1.935,1.791,2.254,2.915   l15.798,54.122c0.02,0.069,0.034,0.133,0.047,0.197l0.016,0.068c0.016,0.065,0.031,0.13,0.042,0.193   c0.01,0.063,0.016,0.121,0.022,0.179l0.008,0.072c0.009,0.069,0.016,0.137,0.02,0.204c0.012,0.245-0.005,0.491-0.05,0.752   c-0.003,0.036-0.012,0.09-0.023,0.143c-0.023,0.106-0.055,0.215-0.091,0.323c0,0.007-0.013,0.052-0.028,0.095   c-0.066,0.182-0.153,0.365-0.267,0.559c-0.264,0.448-0.62,0.826-1.058,1.124c-0.177,0.119-0.374,0.227-0.605,0.331   c-0.091,0.042-0.192,0.083-0.298,0.122c-0.192,0.07-0.398,0.129-0.61,0.174c-0.227,0.048-0.426,0.08-0.625,0.098   C398.648,1058.202,398.484,1058.209,398.316,1058.209z"/>
</g>

        </g>
    </g>
</g>

<!-- ITEM 6 -->
<g>
    <defs>
        
        <clipPath id="clip-path-id-viewbox-item-6">
            <rect x="302.723" y="984.667" width="99.741" height="73.543"/>
        </clipPath>
    </defs>
    <g transform="translate(1196.0 422.0) rotate(0.0 62.5 46.5) scale(1.2532459068988682 1.2645663081462544)">
        <g clip-path="url(#clip-path-id-viewbox-item-6)" transform="translate(-302.723 -984.667)">

<path fill="#FFE651" d="M400.737,985.812c-0.731-0.737-1.727-1.15-2.764-1.145H323.16c-2.158,0.002-3.907,1.751-3.909,3.909v7.94  v0.609v33.297v22.798c0,0,0,0.001,0,0.001c0,2.159,1.751,3.909,3.909,3.908h74.813c0.135,0,0.268-0.007,0.4-0.021  c0.177-0.018,0.349-0.052,0.518-0.093c0.173-0.042,0.342-0.095,0.505-0.159c0.085-0.033,0.168-0.07,0.25-0.109  c0.177-0.084,0.35-0.178,0.511-0.287c0.372-0.251,0.695-0.568,0.96-0.928c0.106-0.144,0.206-0.292,0.291-0.45  c0.013-0.024,0.023-0.05,0.036-0.075c0.045-0.087,0.09-0.175,0.128-0.266c0.016-0.037,0.027-0.076,0.042-0.114  c0.077-0.2,0.142-0.406,0.186-0.62c0.014-0.068,0.022-0.139,0.032-0.208c0.009-0.06,0.021-0.119,0.028-0.18  c0.007-0.064,0.007-0.129,0.01-0.193c0.004-0.069,0.011-0.136,0.011-0.206v0v-22.798v-33.297v-0.609v-7.94  C401.889,987.538,401.477,986.541,400.737,985.812z"/>
<path fill="#F9D5FF" d="M383.65,997.412c-0.911-0.617-2.008-0.963-3.044-0.959h-74.813c-2.158,0.002-3.479,1.466-2.954,3.273  l1.941,6.649l0.149,0.51l8.138,27.881l5.572,19.09l0,0.001c0.528,1.808,2.706,3.273,4.864,3.272h74.813  c0.135,0,0.266-0.006,0.394-0.017c0.173-0.015,0.336-0.044,0.495-0.078c0.163-0.035,0.319-0.079,0.467-0.133  c0.077-0.028,0.151-0.059,0.224-0.092c0.157-0.071,0.306-0.149,0.441-0.24c0.31-0.21,0.556-0.475,0.733-0.777  c0.071-0.12,0.134-0.245,0.181-0.376c0.007-0.02,0.011-0.042,0.018-0.063c0.024-0.073,0.047-0.147,0.063-0.223  c0.007-0.031,0.009-0.064,0.014-0.095c0.029-0.167,0.043-0.34,0.035-0.519c-0.003-0.057-0.012-0.116-0.019-0.174  c-0.006-0.05-0.008-0.1-0.016-0.151c-0.009-0.053-0.025-0.108-0.037-0.162c-0.013-0.057-0.023-0.114-0.04-0.172l0,0l-5.572-19.09  l-8.138-27.881l-0.149-0.51l-1.941-6.649C385.224,998.857,384.567,998.022,383.65,997.412z"/>
<g>
	<path fill="#2B2B2B" d="M398.316,1058.209h-74.814c-0.596,0-1.08-0.484-1.08-1.08c0-0.596,0.484-1.08,1.08-1.08h74.814   c0.101,0,0.2-0.004,0.297-0.013c0.129-0.011,0.248-0.033,0.365-0.058c0.114-0.024,0.222-0.055,0.324-0.092   c0.05-0.018,0.096-0.037,0.142-0.059c0.125-0.056,0.217-0.105,0.288-0.153c0.17-0.115,0.308-0.26,0.408-0.43   c0.037-0.064,0.065-0.119,0.085-0.167c0.006-0.023,0.013-0.045,0.02-0.067c0.009-0.029,0.023-0.067,0.032-0.107   c0.024-0.158,0.031-0.25,0.026-0.337l-0.063-0.374l-15.806-54.163c-0.178-0.629-0.681-1.252-1.382-1.719   c-0.733-0.496-1.615-0.778-2.43-0.778c-0.004,0-0.008,0-0.013,0h-26.804c-0.596,0-1.08-0.484-1.08-1.08   c0-0.596,0.483-1.08,1.08-1.08h26.8c0.007,0,0.014,0,0.021,0c1.25,0,2.539,0.406,3.629,1.144c1.132,0.753,1.935,1.791,2.254,2.915   l15.798,54.122c0.02,0.069,0.034,0.133,0.047,0.197l0.016,0.068c0.016,0.065,0.031,0.13,0.042,0.193   c0.01,0.063,0.016,0.121,0.022,0.179l0.008,0.072c0.009,0.069,0.016,0.137,0.02,0.204c0.012,0.245-0.005,0.491-0.05,0.752   c-0.003,0.036-0.012,0.09-0.023,0.143c-0.023,0.106-0.055,0.215-0.091,0.323c0,0.007-0.013,0.052-0.028,0.095   c-0.066,0.182-0.153,0.365-0.267,0.559c-0.264,0.448-0.62,0.826-1.058,1.124c-0.177,0.119-0.374,0.227-0.605,0.331   c-0.091,0.042-0.192,0.083-0.298,0.122c-0.192,0.07-0.398,0.129-0.61,0.174c-0.227,0.048-0.426,0.08-0.625,0.098   C398.648,1058.202,398.484,1058.209,398.316,1058.209z"/>
</g>

        </g>
    </g>
</g>

              </svg>