<svg width="108" height="172" viewBox="0 0 108 172" fill="none" xmlns="http://www.w3.org/2000/svg">
<path d="M107 126.629V3.4787C107 3.19221 106.876 2.91739 106.659 2.73085C102.46 -0.871411 100.22 -0.628356 96.6107 2.73429C96.4114 2.92 96.3 3.18218 96.3 3.45461V114.717C96.3 115.517 95.408 115.993 94.7436 115.548L56.4639 89.9141C55.5859 89.3271 54.5547 89.014 53.5 89.014C52.4453 89.014 51.4142 89.3271 50.5361 89.9141L12.2564 115.548C11.592 115.993 10.7 115.517 10.7 114.717V3.46191C10.7 3.1852 10.5844 2.91873 10.3797 2.73258C6.31171 -0.966148 4.0443 -0.856064 0.300735 2.73537C0.107756 2.9205 0 3.1787 0 3.44612V126.629C0.000499908 127.601 0.263477 128.555 0.76092 129.388C1.25836 130.222 1.97164 130.905 2.82479 131.364C3.67794 131.823 4.63901 132.04 5.60564 131.994C6.57226 131.947 7.50825 131.638 8.3139 131.1L52.9436 101.217C53.2803 100.992 53.7197 100.992 54.0564 101.217L98.6861 131.1C99.4917 131.638 100.428 131.947 101.394 131.994C102.361 132.04 103.322 131.823 104.175 131.364C105.028 130.905 105.742 130.222 106.239 129.388C106.737 128.555 106.999 127.601 107 126.629Z" fill="#26202D"/>
<path d="M10.242 163.026L7.304 163C6.004 163 5.016 162.619 4.34 161.856C3.68133 161.093 3.352 160.183 3.352 159.126V143.448H6.732V150L10.762 148.128C12.3047 148.128 13.44 148.544 14.168 149.376C14.8093 150.121 15.208 151.326 15.364 152.99C15.416 153.683 15.442 154.541 15.442 155.564C15.442 160.539 13.7087 163.026 10.242 163.026ZM7.59 160.114H9.254C11.126 160.114 12.062 158.597 12.062 155.564C12.062 154.021 11.9147 152.947 11.62 152.34C11.3427 151.733 10.7273 151.43 9.774 151.43L6.732 153.068V158.918C6.732 159.611 7.018 160.01 7.59 160.114ZM26.3248 148.206L25.3888 151.534C25.1288 151.43 24.8342 151.378 24.5048 151.378C23.6382 151.378 22.5722 151.751 21.3068 152.496V163H17.9268V148.154H20.4488L21.2288 149.454L24.8168 147.972C24.9902 147.955 25.2242 147.946 25.5188 147.946C25.8135 147.946 26.0822 148.033 26.3248 148.206ZM36.6117 156.292V154.94C36.6117 153.657 36.421 152.678 36.0397 152.002C35.6757 151.326 34.9044 150.988 33.7257 150.988C31.819 150.988 30.8657 152.271 30.8657 154.836V156.188C30.8657 158.944 31.819 160.322 33.7257 160.322C34.9564 160.322 35.7624 159.863 36.1437 158.944C36.4557 158.216 36.6117 157.332 36.6117 156.292ZM39.9917 155.512C39.9917 158.719 39.385 160.868 38.1717 161.96C37.149 162.896 35.667 163.364 33.7257 163.364C31.247 163.364 29.5744 162.636 28.7077 161.18C27.893 159.845 27.4857 157.956 27.4857 155.512C27.4857 153.224 27.893 151.43 28.7077 150.13C29.609 148.674 31.247 147.946 33.6217 147.946C36.0137 147.946 37.669 148.587 38.5877 149.87C39.5237 151.135 39.9917 153.016 39.9917 155.512ZM60.4269 148.154L56.2929 163H53.5109L50.6769 153.978L47.8429 163H45.0609L40.9009 148.154H44.4889L46.6729 157.826L48.9349 149.87C49.1949 148.726 49.7842 148.154 50.7029 148.154C51.1362 148.154 51.4829 148.293 51.7429 148.57C52.0029 148.847 52.2195 149.281 52.3929 149.87L54.6809 157.826L56.8649 148.154H60.4269ZM71.8094 163H63.7234C62.8394 163 62.1547 162.818 61.6694 162.454C61.2014 162.073 60.9674 161.544 60.9674 160.868C60.9674 160.192 61.2534 159.481 61.8254 158.736L68.0134 151.066H61.8254V148.154H72.0694V150.728L64.6854 160.088H71.8094V163ZM89.5916 157.566L92.6596 157.54C92.6422 157.679 92.6249 157.93 92.6076 158.294C92.5902 158.658 92.5729 158.909 92.5556 159.048C92.5556 159.169 92.5382 159.369 92.5036 159.646C92.4689 159.923 92.4256 160.131 92.3736 160.27C92.3389 160.391 92.2869 160.556 92.2176 160.764C91.9056 161.665 91.0562 162.376 89.6696 162.896C88.7856 163.208 87.8582 163.364 86.8876 163.364C85.9342 163.364 85.0676 163.208 84.2876 162.896C83.5076 162.584 82.8922 162.185 82.4416 161.7C81.4189 160.625 80.9076 158.615 80.9076 155.668C80.9076 152.704 81.4189 150.685 82.4416 149.61C82.8922 149.125 83.5076 148.726 84.2876 148.414C85.0676 148.102 85.9342 147.946 86.8876 147.946C88.7596 147.946 90.1809 148.414 91.1516 149.35C92.1222 150.286 92.6076 151.586 92.6076 153.25H89.5396C89.5396 152.487 89.3489 151.924 88.9676 151.56C88.5862 151.179 87.8756 150.988 86.8356 150.988C85.8129 150.988 85.1282 151.309 84.7816 151.95C84.4522 152.591 84.2876 153.553 84.2876 154.836V156.188C84.2876 158.251 84.6862 159.516 85.4836 159.984C85.8476 160.209 86.3242 160.322 86.9136 160.322C87.5029 160.322 87.9796 160.27 88.3436 160.166C88.7249 160.045 88.9936 159.845 89.1496 159.568C89.3229 159.291 89.4356 159.022 89.4876 158.762C89.5396 158.485 89.5742 158.086 89.5916 157.566ZM105.7 163H103.438L102.398 161.206L98.784 163.156C96.7733 163.156 95.4213 162.428 94.728 160.972C94.3813 160.261 94.1387 159.499 94 158.684C93.8787 157.852 93.818 156.994 93.818 156.11C93.818 155.209 93.8267 154.55 93.844 154.134C93.8613 153.701 93.9047 153.207 93.974 152.652C94.0433 152.08 94.1387 151.603 94.26 151.222C94.3987 150.841 94.5893 150.451 94.832 150.052C95.0747 149.636 95.3693 149.307 95.716 149.064C96.496 148.527 97.51 148.258 98.758 148.258H102.32L105.7 148.05V163ZM102.32 158.268V151.3H99.746C98.7927 151.3 98.1253 151.664 97.744 152.392C97.38 153.12 97.198 154.212 97.198 155.668C97.198 157.107 97.3713 158.121 97.718 158.71C98.082 159.299 98.758 159.594 99.746 159.594L102.32 158.268Z" fill="#26202D"/>
<path d="M76.5554 142.486C77.3701 142.486 77.8987 142.616 78.1414 142.876C78.3841 143.119 78.5054 143.647 78.5054 144.462C78.5054 145.259 78.3754 145.788 78.1154 146.048C77.8727 146.291 77.3441 146.412 76.5294 146.412C75.7321 146.412 75.2034 146.282 74.9434 146.022C74.7007 145.762 74.5794 145.233 74.5794 144.436C74.5794 143.639 74.7007 143.119 74.9434 142.876C75.2034 142.616 75.7407 142.486 76.5554 142.486ZM78.2194 163H74.8394V148.7H78.2194V163Z" fill="#9151D0"/>
<path d="M22 11.6247V90.0917C21.9997 90.5964 22.1124 91.0924 22.3271 91.5311C22.5418 91.9697 22.8511 92.3358 23.2245 92.5933C23.5978 92.8508 24.0225 92.9908 24.4565 92.9996C24.8906 93.0083 25.3191 92.8856 25.7 92.6433L52 75.9618L78.3 92.6433C78.6809 92.8856 79.1094 93.0083 79.5435 92.9996C79.9775 92.9908 80.4022 92.8508 80.7755 92.5933C81.1489 92.3358 81.4582 91.9697 81.6729 91.5311C81.8876 91.0924 82.0003 90.5964 82 90.0917V11.6247C82 8.54166 80.9464 5.58487 79.0711 3.40481C77.1957 1.22475 74.6522 0 72 0H32C29.3478 0 26.8043 1.22475 24.9289 3.40481C23.0536 5.58487 22 8.54166 22 11.6247Z" fill="#9151D0"/>
</svg>
