<svg width="107" height="132" viewBox="0 0 107 132" fill="none" xmlns="http://www.w3.org/2000/svg">
<path d="M107 126.629V3.4787C107 3.19221 106.876 2.91739 106.659 2.73085C102.46 -0.871411 100.22 -0.628356 96.6107 2.73429C96.4114 2.92 96.3 3.18218 96.3 3.45461V114.717C96.3 115.517 95.408 115.993 94.7436 115.548L56.4639 89.9141C55.5859 89.3271 54.5547 89.014 53.5 89.014C52.4453 89.014 51.4142 89.3271 50.5361 89.9141L12.2564 115.548C11.592 115.993 10.7 115.517 10.7 114.717V3.46191C10.7 3.1852 10.5844 2.91873 10.3797 2.73258C6.31171 -0.966148 4.0443 -0.856064 0.300735 2.73537C0.107756 2.9205 0 3.1787 0 3.44612V126.629C0.000499908 127.601 0.263477 128.555 0.76092 129.388C1.25836 130.222 1.97164 130.905 2.82479 131.364C3.67794 131.823 4.63901 132.04 5.60564 131.994C6.57226 131.947 7.50825 131.638 8.3139 131.1L52.9436 101.217C53.2803 100.992 53.7197 100.992 54.0564 101.217L98.6861 131.1C99.4917 131.638 100.428 131.947 101.394 131.994C102.361 132.04 103.322 131.823 104.175 131.364C105.028 130.905 105.742 130.222 106.239 129.388C106.737 128.555 106.999 127.601 107 126.629Z" fill="#26202D"/>
<path d="M22 11.6247V90.0917C21.9997 90.5964 22.1124 91.0924 22.3271 91.5311C22.5418 91.9697 22.8511 92.3358 23.2245 92.5933C23.5978 92.8508 24.0225 92.9908 24.4565 92.9996C24.8906 93.0083 25.3191 92.8856 25.7 92.6433L52 75.9618L78.3 92.6433C78.6809 92.8856 79.1094 93.0083 79.5435 92.9996C79.9775 92.9908 80.4022 92.8508 80.7755 92.5933C81.1489 92.3358 81.4582 91.9697 81.6729 91.5311C81.8876 91.0924 82.0003 90.5964 82 90.0917V11.6247C82 8.54166 80.9464 5.58487 79.0711 3.40481C77.1957 1.22475 74.6522 0 72 0H32C29.3478 0 26.8043 1.22475 24.9289 3.40481C23.0536 5.58487 22 8.54166 22 11.6247Z" fill="#9151D0"/>
</svg>
